<?xml version="1.0" encoding="UTF-8" standalone="no"?>
<!DOCTYPE svg PUBLIC "-//W3C//DTD SVG 1.1//EN"
 "http://www.w3.org/Graphics/SVG/1.1/DTD/svg11.dtd">
<!-- Generated by graphviz version 2.43.0 (0)
 -->
<!-- Title: G Pages: 1 -->
<svg width="773pt" height="233pt"
 viewBox="0.00 0.00 772.86 233.00" xmlns="http://www.w3.org/2000/svg" xmlns:xlink="http://www.w3.org/1999/xlink">
<g id="graph0" class="graph" transform="scale(1 1) rotate(0) translate(4 229)">
<title>G</title>
<polygon fill="white" stroke="transparent" points="-4,4 -4,-229 768.86,-229 768.86,4 -4,4"/>
<!-- Loss -->
<g id="node1" class="node">
<title>Loss</title>
<ellipse fill="none" stroke="black" cx="27.3" cy="-153" rx="27.1" ry="18"/>
<text text-anchor="middle" x="27.3" y="-149.3" font-family="Times,serif" font-size="14.00">Loss</text>
</g>
<!-- sigmoid -->
<g id="node2" class="node">
<title>sigmoid</title>
<ellipse fill="none" stroke="black" cx="130.24" cy="-153" rx="39.79" ry="18"/>
<text text-anchor="middle" x="130.24" y="-149.3" font-family="Times,serif" font-size="14.00">sigmoid</text>
</g>
<!-- Loss&#45;&gt;sigmoid -->
<g id="edge1" class="edge">
<title>Loss&#45;&gt;sigmoid</title>
<path fill="none" stroke="black" d="M54.82,-153C62.63,-153 71.43,-153 80.18,-153"/>
<polygon fill="black" stroke="black" points="80.36,-156.5 90.36,-153 80.36,-149.5 80.36,-156.5"/>
</g>
<!-- linear3 -->
<g id="node3" class="node">
<title>linear3</title>
<ellipse fill="none" stroke="black" cx="240.99" cy="-153" rx="35.19" ry="18"/>
<text text-anchor="middle" x="240.99" y="-149.3" font-family="Times,serif" font-size="14.00">linear3</text>
</g>
<!-- sigmoid&#45;&gt;linear3 -->
<g id="edge2" class="edge">
<title>sigmoid&#45;&gt;linear3</title>
<path fill="none" stroke="black" d="M170.19,-153C178.43,-153 187.17,-153 195.59,-153"/>
<polygon fill="black" stroke="black" points="195.63,-156.5 205.63,-153 195.63,-149.5 195.63,-156.5"/>
</g>
<!-- W3 -->
<g id="node4" class="node">
<title>W3</title>
<ellipse fill="none" stroke="black" cx="340.68" cy="-207" rx="27" ry="18"/>
<text text-anchor="middle" x="340.68" y="-203.3" font-family="Times,serif" font-size="14.00">W3</text>
</g>
<!-- linear3&#45;&gt;W3 -->
<g id="edge3" class="edge">
<title>linear3&#45;&gt;W3</title>
<path fill="none" stroke="black" d="M265.63,-166.07C279.07,-173.5 296,-182.86 310.29,-190.75"/>
<polygon fill="black" stroke="black" points="308.78,-193.92 319.23,-195.69 312.17,-187.79 308.78,-193.92"/>
</g>
<!-- B3 -->
<g id="node5" class="node">
<title>B3</title>
<ellipse fill="none" stroke="black" cx="340.68" cy="-153" rx="27" ry="18"/>
<text text-anchor="middle" x="340.68" y="-149.3" font-family="Times,serif" font-size="14.00">B3</text>
</g>
<!-- linear3&#45;&gt;B3 -->
<g id="edge4" class="edge">
<title>linear3&#45;&gt;B3</title>
<path fill="none" stroke="black" d="M276.15,-153C284.93,-153 294.41,-153 303.3,-153"/>
<polygon fill="black" stroke="black" points="303.38,-156.5 313.38,-153 303.38,-149.5 303.38,-156.5"/>
</g>
<!-- relu2 -->
<g id="node6" class="node">
<title>relu2</title>
<ellipse fill="none" stroke="black" cx="340.68" cy="-99" rx="28.7" ry="18"/>
<text text-anchor="middle" x="340.68" y="-95.3" font-family="Times,serif" font-size="14.00">relu2</text>
</g>
<!-- linear3&#45;&gt;relu2 -->
<g id="edge5" class="edge">
<title>linear3&#45;&gt;relu2</title>
<path fill="none" stroke="black" d="M265.63,-139.93C278.88,-132.61 295.54,-123.4 309.69,-115.57"/>
<polygon fill="black" stroke="black" points="311.52,-118.57 318.58,-110.67 308.13,-112.44 311.52,-118.57"/>
</g>
<!-- linear2 -->
<g id="node7" class="node">
<title>linear2</title>
<ellipse fill="none" stroke="black" cx="440.37" cy="-99" rx="35.19" ry="18"/>
<text text-anchor="middle" x="440.37" y="-95.3" font-family="Times,serif" font-size="14.00">linear2</text>
</g>
<!-- relu2&#45;&gt;linear2 -->
<g id="edge6" class="edge">
<title>relu2&#45;&gt;linear2</title>
<path fill="none" stroke="black" d="M369.41,-99C377.36,-99 386.23,-99 394.91,-99"/>
<polygon fill="black" stroke="black" points="394.96,-102.5 404.96,-99 394.96,-95.5 394.96,-102.5"/>
</g>
<!-- W2 -->
<g id="node8" class="node">
<title>W2</title>
<ellipse fill="none" stroke="black" cx="540.07" cy="-153" rx="27" ry="18"/>
<text text-anchor="middle" x="540.07" y="-149.3" font-family="Times,serif" font-size="14.00">W2</text>
</g>
<!-- linear2&#45;&gt;W2 -->
<g id="edge7" class="edge">
<title>linear2&#45;&gt;W2</title>
<path fill="none" stroke="black" d="M465.02,-112.07C478.46,-119.5 495.39,-128.86 509.67,-136.75"/>
<polygon fill="black" stroke="black" points="508.17,-139.92 518.61,-141.69 511.56,-133.79 508.17,-139.92"/>
</g>
<!-- B2 -->
<g id="node9" class="node">
<title>B2</title>
<ellipse fill="none" stroke="black" cx="540.07" cy="-99" rx="27" ry="18"/>
<text text-anchor="middle" x="540.07" y="-95.3" font-family="Times,serif" font-size="14.00">B2</text>
</g>
<!-- linear2&#45;&gt;B2 -->
<g id="edge8" class="edge">
<title>linear2&#45;&gt;B2</title>
<path fill="none" stroke="black" d="M475.54,-99C484.32,-99 493.8,-99 502.69,-99"/>
<polygon fill="black" stroke="black" points="502.77,-102.5 512.77,-99 502.77,-95.5 502.77,-102.5"/>
</g>
<!-- relu1 -->
<g id="node10" class="node">
<title>relu1</title>
<ellipse fill="none" stroke="black" cx="540.07" cy="-45" rx="28.7" ry="18"/>
<text text-anchor="middle" x="540.07" y="-41.3" font-family="Times,serif" font-size="14.00">relu1</text>
</g>
<!-- linear2&#45;&gt;relu1 -->
<g id="edge9" class="edge">
<title>linear2&#45;&gt;relu1</title>
<path fill="none" stroke="black" d="M465.02,-85.93C478.27,-78.61 494.93,-69.4 509.08,-61.57"/>
<polygon fill="black" stroke="black" points="510.9,-64.57 517.96,-56.67 507.52,-58.44 510.9,-64.57"/>
</g>
<!-- linear1 -->
<g id="node11" class="node">
<title>linear1</title>
<ellipse fill="none" stroke="black" cx="639.76" cy="-45" rx="35.19" ry="18"/>
<text text-anchor="middle" x="639.76" y="-41.3" font-family="Times,serif" font-size="14.00">linear1</text>
</g>
<!-- relu1&#45;&gt;linear1 -->
<g id="edge10" class="edge">
<title>relu1&#45;&gt;linear1</title>
<path fill="none" stroke="black" d="M568.8,-45C576.75,-45 585.62,-45 594.3,-45"/>
<polygon fill="black" stroke="black" points="594.34,-48.5 604.34,-45 594.34,-41.5 594.34,-48.5"/>
</g>
<!-- W1 -->
<g id="node12" class="node">
<title>W1</title>
<ellipse fill="none" stroke="black" cx="737.86" cy="-72" rx="27" ry="18"/>
<text text-anchor="middle" x="737.86" y="-68.3" font-family="Times,serif" font-size="14.00">W1</text>
</g>
<!-- linear1&#45;&gt;W1 -->
<g id="edge11" class="edge">
<title>linear1&#45;&gt;W1</title>
<path fill="none" stroke="black" d="M670.9,-53.47C681.08,-56.33 692.51,-59.54 702.96,-62.48"/>
<polygon fill="black" stroke="black" points="702.03,-65.85 712.6,-65.19 703.92,-59.11 702.03,-65.85"/>
</g>
<!-- B1 -->
<g id="node13" class="node">
<title>B1</title>
<ellipse fill="none" stroke="black" cx="737.86" cy="-18" rx="27" ry="18"/>
<text text-anchor="middle" x="737.86" y="-14.3" font-family="Times,serif" font-size="14.00">B1</text>
</g>
<!-- linear1&#45;&gt;B1 -->
<g id="edge12" class="edge">
<title>linear1&#45;&gt;B1</title>
<path fill="none" stroke="black" d="M670.9,-36.53C681.08,-33.67 692.51,-30.46 702.96,-27.52"/>
<polygon fill="black" stroke="black" points="703.92,-30.89 712.6,-24.81 702.03,-24.15 703.92,-30.89"/>
</g>
</g>
</svg>