<?xml version="1.0" encoding="UTF-8" standalone="no"?>
<!DOCTYPE svg PUBLIC "-//W3C//DTD SVG 1.1//EN"
 "http://www.w3.org/Graphics/SVG/1.1/DTD/svg11.dtd">
<!-- Generated by graphviz version 2.43.0 (0)
 -->
<!-- Title: G Pages: 1 -->
<svg width="811pt" height="260pt"
 viewBox="0.00 0.00 810.56 260.00" xmlns="http://www.w3.org/2000/svg" xmlns:xlink="http://www.w3.org/1999/xlink">
<g id="graph0" class="graph" transform="scale(1 1) rotate(0) translate(4 256)">
<title>G</title>
<polygon fill="white" stroke="transparent" points="-4,4 -4,-256 806.56,-256 806.56,4 -4,4"/>
<!-- X -->
<g id="node1" class="node">
<title>X</title>
<ellipse fill="none" stroke="black" cx="27" cy="-234" rx="27" ry="18"/>
<text text-anchor="middle" x="27" y="-230.3" font-family="Times,serif" font-size="14.00">X</text>
</g>
<!-- linear1 -->
<g id="node2" class="node">
<title>linear1</title>
<ellipse fill="none" stroke="black" cx="125.1" cy="-180" rx="35.19" ry="18"/>
<text text-anchor="middle" x="125.1" y="-176.3" font-family="Times,serif" font-size="14.00">linear1</text>
</g>
<!-- X&#45;&gt;linear1 -->
<g id="edge1" class="edge">
<title>X&#45;&gt;linear1</title>
<path fill="none" stroke="black" d="M48.38,-222.55C60.94,-215.49 77.34,-206.28 91.66,-198.23"/>
<polygon fill="black" stroke="black" points="93.7,-201.1 100.7,-193.15 90.27,-194.99 93.7,-201.1"/>
</g>
<!-- relu1 -->
<g id="node3" class="node">
<title>relu1</title>
<ellipse fill="none" stroke="black" cx="224.79" cy="-180" rx="28.7" ry="18"/>
<text text-anchor="middle" x="224.79" y="-176.3" font-family="Times,serif" font-size="14.00">relu1</text>
</g>
<!-- linear1&#45;&gt;relu1 -->
<g id="edge2" class="edge">
<title>linear1&#45;&gt;relu1</title>
<path fill="none" stroke="black" d="M160.27,-180C168.56,-180 177.47,-180 185.93,-180"/>
<polygon fill="black" stroke="black" points="185.93,-183.5 195.93,-180 185.93,-176.5 185.93,-183.5"/>
</g>
<!-- linear2 -->
<g id="node4" class="node">
<title>linear2</title>
<ellipse fill="none" stroke="black" cx="324.49" cy="-126" rx="35.19" ry="18"/>
<text text-anchor="middle" x="324.49" y="-122.3" font-family="Times,serif" font-size="14.00">linear2</text>
</g>
<!-- relu1&#45;&gt;linear2 -->
<g id="edge3" class="edge">
<title>relu1&#45;&gt;linear2</title>
<path fill="none" stroke="black" d="M246.99,-168.28C259.79,-161.21 276.36,-152.05 290.81,-144.06"/>
<polygon fill="black" stroke="black" points="292.87,-146.92 299.93,-139.02 289.49,-140.79 292.87,-146.92"/>
</g>
<!-- relu2 -->
<g id="node5" class="node">
<title>relu2</title>
<ellipse fill="none" stroke="black" cx="424.18" cy="-126" rx="28.7" ry="18"/>
<text text-anchor="middle" x="424.18" y="-122.3" font-family="Times,serif" font-size="14.00">relu2</text>
</g>
<!-- linear2&#45;&gt;relu2 -->
<g id="edge4" class="edge">
<title>linear2&#45;&gt;relu2</title>
<path fill="none" stroke="black" d="M359.65,-126C367.95,-126 376.86,-126 385.32,-126"/>
<polygon fill="black" stroke="black" points="385.32,-129.5 395.32,-126 385.32,-122.5 385.32,-129.5"/>
</g>
<!-- linear3 -->
<g id="node6" class="node">
<title>linear3</title>
<ellipse fill="none" stroke="black" cx="523.87" cy="-72" rx="35.19" ry="18"/>
<text text-anchor="middle" x="523.87" y="-68.3" font-family="Times,serif" font-size="14.00">linear3</text>
</g>
<!-- relu2&#45;&gt;linear3 -->
<g id="edge5" class="edge">
<title>relu2&#45;&gt;linear3</title>
<path fill="none" stroke="black" d="M446.38,-114.28C459.18,-107.21 475.75,-98.05 490.2,-90.06"/>
<polygon fill="black" stroke="black" points="492.26,-92.92 499.32,-85.02 488.88,-86.79 492.26,-92.92"/>
</g>
<!-- sigmoid -->
<g id="node7" class="node">
<title>sigmoid</title>
<ellipse fill="none" stroke="black" cx="634.62" cy="-72" rx="39.79" ry="18"/>
<text text-anchor="middle" x="634.62" y="-68.3" font-family="Times,serif" font-size="14.00">sigmoid</text>
</g>
<!-- linear3&#45;&gt;sigmoid -->
<g id="edge6" class="edge">
<title>linear3&#45;&gt;sigmoid</title>
<path fill="none" stroke="black" d="M558.98,-72C567.13,-72 575.99,-72 584.66,-72"/>
<polygon fill="black" stroke="black" points="584.7,-75.5 594.7,-72 584.7,-68.5 584.7,-75.5"/>
</g>
<!-- prediction -->
<g id="node8" class="node">
<title>prediction</title>
<ellipse fill="none" stroke="black" cx="756.41" cy="-72" rx="46.29" ry="18"/>
<text text-anchor="middle" x="756.41" y="-68.3" font-family="Times,serif" font-size="14.00">prediction</text>
</g>
<!-- sigmoid&#45;&gt;prediction -->
<g id="edge7" class="edge">
<title>sigmoid&#45;&gt;prediction</title>
<path fill="none" stroke="black" d="M674.51,-72C682.66,-72 691.41,-72 700.03,-72"/>
<polygon fill="black" stroke="black" points="700.05,-75.5 710.05,-72 700.05,-68.5 700.05,-75.5"/>
</g>
<!-- W1 -->
<g id="node9" class="node">
<title>W1</title>
<ellipse fill="none" stroke="black" cx="27" cy="-180" rx="27" ry="18"/>
<text text-anchor="middle" x="27" y="-176.3" font-family="Times,serif" font-size="14.00">W1</text>
</g>
<!-- W1&#45;&gt;linear1 -->
<g id="edge8" class="edge">
<title>W1&#45;&gt;linear1</title>
<path fill="none" stroke="black" d="M54.01,-180C61.92,-180 70.84,-180 79.61,-180"/>
<polygon fill="black" stroke="black" points="79.76,-183.5 89.76,-180 79.76,-176.5 79.76,-183.5"/>
</g>
<!-- B1 -->
<g id="node10" class="node">
<title>B1</title>
<ellipse fill="none" stroke="black" cx="27" cy="-126" rx="27" ry="18"/>
<text text-anchor="middle" x="27" y="-122.3" font-family="Times,serif" font-size="14.00">B1</text>
</g>
<!-- B1&#45;&gt;linear1 -->
<g id="edge9" class="edge">
<title>B1&#45;&gt;linear1</title>
<path fill="none" stroke="black" d="M48.38,-137.45C60.94,-144.51 77.34,-153.72 91.66,-161.77"/>
<polygon fill="black" stroke="black" points="90.27,-165.01 100.7,-166.85 93.7,-158.9 90.27,-165.01"/>
</g>
<!-- W2 -->
<g id="node11" class="node">
<title>W2</title>
<ellipse fill="none" stroke="black" cx="224.79" cy="-126" rx="27" ry="18"/>
<text text-anchor="middle" x="224.79" y="-122.3" font-family="Times,serif" font-size="14.00">W2</text>
</g>
<!-- W2&#45;&gt;linear2 -->
<g id="edge10" class="edge">
<title>W2&#45;&gt;linear2</title>
<path fill="none" stroke="black" d="M251.97,-126C260.27,-126 269.68,-126 278.89,-126"/>
<polygon fill="black" stroke="black" points="279.14,-129.5 289.14,-126 279.14,-122.5 279.14,-129.5"/>
</g>
<!-- B2 -->
<g id="node12" class="node">
<title>B2</title>
<ellipse fill="none" stroke="black" cx="224.79" cy="-72" rx="27" ry="18"/>
<text text-anchor="middle" x="224.79" y="-68.3" font-family="Times,serif" font-size="14.00">B2</text>
</g>
<!-- B2&#45;&gt;linear2 -->
<g id="edge11" class="edge">
<title>B2&#45;&gt;linear2</title>
<path fill="none" stroke="black" d="M246.03,-83.19C258.99,-90.35 276.1,-99.81 290.94,-108.01"/>
<polygon fill="black" stroke="black" points="289.38,-111.15 299.83,-112.92 292.77,-105.02 289.38,-111.15"/>
</g>
<!-- W3 -->
<g id="node13" class="node">
<title>W3</title>
<ellipse fill="none" stroke="black" cx="424.18" cy="-72" rx="27" ry="18"/>
<text text-anchor="middle" x="424.18" y="-68.3" font-family="Times,serif" font-size="14.00">W3</text>
</g>
<!-- W3&#45;&gt;linear3 -->
<g id="edge12" class="edge">
<title>W3&#45;&gt;linear3</title>
<path fill="none" stroke="black" d="M451.36,-72C459.66,-72 469.07,-72 478.28,-72"/>
<polygon fill="black" stroke="black" points="478.53,-75.5 488.53,-72 478.53,-68.5 478.53,-75.5"/>
</g>
<!-- B3 -->
<g id="node14" class="node">
<title>B3</title>
<ellipse fill="none" stroke="black" cx="424.18" cy="-18" rx="27" ry="18"/>
<text text-anchor="middle" x="424.18" y="-14.3" font-family="Times,serif" font-size="14.00">B3</text>
</g>
<!-- B3&#45;&gt;linear3 -->
<g id="edge13" class="edge">
<title>B3&#45;&gt;linear3</title>
<path fill="none" stroke="black" d="M445.42,-29.19C458.38,-36.35 475.49,-45.81 490.33,-54.01"/>
<polygon fill="black" stroke="black" points="488.77,-57.15 499.22,-58.92 492.16,-51.02 488.77,-57.15"/>
</g>
</g>
</svg>