<?xml version="1.0" encoding="UTF-8" standalone="no"?>
<!DOCTYPE svg PUBLIC "-//W3C//DTD SVG 1.1//EN"
 "http://www.w3.org/Graphics/SVG/1.1/DTD/svg11.dtd">
<!-- Generated by graphviz version 2.43.0 (0)
 -->
<!-- Title: G Pages: 1 -->
<svg width="299pt" height="98pt"
 viewBox="0.00 0.00 299.09 98.00" xmlns="http://www.w3.org/2000/svg" xmlns:xlink="http://www.w3.org/1999/xlink">
<g id="graph0" class="graph" transform="scale(1 1) rotate(0) translate(4 94)">
<title>G</title>
<polygon fill="white" stroke="transparent" points="-4,4 -4,-94 295.09,-94 295.09,4 -4,4"/>
<!-- prediction -->
<g id="node1" class="node">
<title>prediction</title>
<ellipse fill="none" stroke="black" cx="46.15" cy="-72" rx="46.29" ry="18"/>
<text text-anchor="middle" x="46.15" y="-68.3" font-family="Times,serif" font-size="14.00">prediction</text>
</g>
<!-- loss_fn -->
<g id="node2" class="node">
<title>loss_fn</title>
<ellipse fill="none" stroke="black" cx="164.69" cy="-45" rx="36.29" ry="18"/>
<text text-anchor="middle" x="164.69" y="-41.3" font-family="Times,serif" font-size="14.00">loss_fn</text>
</g>
<!-- prediction&#45;&gt;loss_fn -->
<g id="edge1" class="edge">
<title>prediction&#45;&gt;loss_fn</title>
<path fill="none" stroke="black" d="M86.28,-62.93C97.63,-60.3 110.08,-57.42 121.6,-54.75"/>
<polygon fill="black" stroke="black" points="122.49,-58.14 131.45,-52.47 120.91,-51.32 122.49,-58.14"/>
</g>
<!-- loss -->
<g id="node4" class="node">
<title>loss</title>
<ellipse fill="none" stroke="black" cx="264.09" cy="-45" rx="27" ry="18"/>
<text text-anchor="middle" x="264.09" y="-41.3" font-family="Times,serif" font-size="14.00">loss</text>
</g>
<!-- loss_fn&#45;&gt;loss -->
<g id="edge3" class="edge">
<title>loss_fn&#45;&gt;loss</title>
<path fill="none" stroke="black" d="M201.13,-45C209.46,-45 218.36,-45 226.74,-45"/>
<polygon fill="black" stroke="black" points="226.99,-48.5 236.99,-45 226.99,-41.5 226.99,-48.5"/>
</g>
<!-- target -->
<g id="node3" class="node">
<title>target</title>
<ellipse fill="none" stroke="black" cx="46.15" cy="-18" rx="30.59" ry="18"/>
<text text-anchor="middle" x="46.15" y="-14.3" font-family="Times,serif" font-size="14.00">target</text>
</g>
<!-- target&#45;&gt;loss_fn -->
<g id="edge2" class="edge">
<title>target&#45;&gt;loss_fn</title>
<path fill="none" stroke="black" d="M74.76,-24.4C88.68,-27.62 105.85,-31.6 121.39,-35.2"/>
<polygon fill="black" stroke="black" points="120.78,-38.65 131.31,-37.5 122.36,-31.83 120.78,-38.65"/>
</g>
</g>
</svg>